<svg height="512pt" viewBox="-22 0 512 512" width="512pt" xmlns="http://www.w3.org/2000/svg"><path d="m374.410156 346.226562h-140.511718c-8.433594 0-15.269532-6.835937-15.269532-15.269531v-315.433593c0-7.210938 5.039063-13.4375 12.09375-14.9375 7.050782-1.5 14.191406 2.136718 17.125 8.722656l140.515625 315.433594c2.101563 4.726562 1.671875 10.195312-1.140625 14.53125-2.820312 4.339843-7.640625 6.953124-12.8125 6.953124zm0 0" fill="#dbeeff"/><path d="m234.140625 346.480469h-134.582031c-5.613282 0-10.773438-3.078125-13.4375-8.015625-2.664063-4.9375-2.410156-10.9375.667968-15.628906l134.582032-205.175782c3.703125-5.640625 10.667968-8.1875 17.140625-6.253906 6.46875 1.929688 10.898437 7.878906 10.898437 14.632812v205.171876c0 8.433593-6.835937 15.269531-15.269531 15.269531zm0 0" fill="#f5fafc"/><path d="m233.894531 407.742188c-8.433593 0-15.273437-6.835938-15.273437-15.269532v-377.203125c0-8.433593 6.839844-15.269531 15.273437-15.269531 8.433594 0 15.269531 6.835938 15.269531 15.269531v377.203125c0 8.433594-6.835937 15.269532-15.269531 15.269532zm0 0" fill="#414952"/><path d="m249.164062 392.472656v-377.203125c0-8.433593-6.835937-15.269531-15.269531-15.269531v407.742188c8.433594 0 15.269531-6.835938 15.269531-15.269532zm0 0" fill="#23272b"/><path d="m304.949219 512h-162.335938c-33.433593 0-66.09375-11.664062-91.960937-32.84375-25.871094-21.179688-43.753906-50.894531-50.351563-83.667969-.902343-4.492187.253907-9.148437 3.15625-12.691406 2.898438-3.539063 7.234375-5.597656 11.8125-5.597656h437.246094c5.917969 0 11.308594 3.425781 13.824219 8.785156s1.707031 11.691406-2.078125 16.246094l-47.640625 57.355469c-27.667969 33.308593-68.371094 52.414062-111.671875 52.414062zm0 0" fill="#19cffc"/><path d="m452.515625 377.199219h-218.621094v134.800781h71.054688c43.300781 0 84.003906-19.105469 111.671875-52.414062l47.640625-57.359376c3.785156-4.554687 4.59375-10.882812 2.078125-16.246093-2.515625-5.359375-7.90625-8.78125-13.824219-8.78125zm0 0" fill="#4a98f7"/></svg>