<svg viewBox="0 0 18 17" version="1.1" xmlns="http://www.w3.org/2000/svg" xmlns:xlink="http://www.w3.org/1999/xlink" role="img" aria-labelledby="cm-pill-icon-title"><title id="cm-pill-icon-title">Contact Us</title><g class="open-links-support" stroke="none" stroke-width="1" fill="none" fill-rule="evenodd" transform="translate(-1.000000, -2.000000)"><g class="umx-chat-20px"><g class="cm-Icon" transform="translate(1.250000, 2.500000)" fill="#000000" fill-rule="nonzero"><path d="M9.8375,16.25 L8.75,15.625 L11.25,11.25 L15,11.25 C15.6903559,11.25 16.25,10.6903559 16.25,10 L16.25,2.5 C16.25,1.80964406 15.6903559,1.25 15,1.25 L2.5,1.25 C1.80964406,1.25 1.25,1.80964406 1.25,2.5 L1.25,10 C1.25,10.6903559 1.80964406,11.25 2.5,11.25 L8.125,11.25 L8.125,12.5 L2.5,12.5 C1.11928813,12.5 2.77555756e-16,11.3807119 0,10 L0,2.5 C-1.38777878e-16,1.11928813 1.11928813,0 2.5,0 L15,0 C16.3807119,0 17.5,1.11928813 17.5,2.5 L17.5,10 C17.5,11.3807119 16.3807119,12.5 15,12.5 L11.975,12.5 L9.8375,16.25 Z" id="Shape"></path><rect x="3.75" y="3.75" width="10" height="1.25"></rect><rect x="3.75" y="7.5" width="6.25" height="1.25"></rect></g><g class="cm-Transparent_Rectangle"><rect x="0" y="0" width="20" height="20"></rect></g></g></g></svg>
