<svg width="24.000000000000004" height="24.000000000000004" xmlns="http://www.w3.org/2000/svg">

 <g>
  <title>background</title>
  <rect fill="none" id="canvas_background" height="26" width="26" y="-1" x="-1"/>
 </g>
 <g>
  <title>Layer 1</title>
  <g id="svg_1">
   <g id="svg_2">
    <g id="svg_3">
     <path fill="#fcfcfc" id="svg_4" d="m4.4,23.5c0,0 -0.1,0 -0.1,0c-0.2,-0.1 -0.4,-0.3 -0.4,-0.5l0,-21c0,-0.8 0.6,-1.4 1.4,-1.4l13.4,0c0.4,0 0.8,0.2 1,0.5c0.3,0.2 0.4,0.7 0.3,1.1l-0.7,3.6c-0.1,0.6 -0.7,1.1 -1.4,1.1l-6.5,0c-0.5,0 -0.8,0.4 -0.8,0.8l0,0.8c0,0.5 0.4,0.8 0.8,0.8l5.5,0c0.4,0 0.8,0.2 1,0.5c0.3,0.3 0.4,0.7 0.3,1.1c-0.1,0.6 -0.7,3.4 -0.7,3.7c-0.1,0.5 -0.6,1.1 -1.4,1.1l-4.5,0c-0.9,0 -0.9,0 -1.3,0.5c-0.6,0.7 -5.4,6.9 -5.4,6.9c-0.1,0.3 -0.3,0.4 -0.5,0.4zm0.9,-22c-0.2,0 -0.4,0.2 -0.4,0.4l0,19.7c1.4,-1.7 4,-5 4.6,-5.8l-0.6,0c-0.3,0 -0.5,-0.2 -0.5,-0.5s0.2,-0.5 0.5,-0.5l4.5,0c0,0 0,0 0,0l2.7,0c0.2,0 0.4,-0.2 0.4,-0.3c0.1,-0.3 0.6,-3.2 0.7,-3.7c0,-0.1 0,-0.3 -0.1,-0.3c-0.1,-0.1 -0.2,-0.1 -0.3,-0.1l-5.5,0c-1,0 -1.8,-0.8 -1.8,-1.8l0,-0.8c0,-1 0.8,-1.8 1.8,-1.8l6.5,0c0.2,0 0.4,-0.2 0.4,-0.3l0.9,-3.7c0,0 0,0 0,0c0,-0.2 0,-0.3 -0.1,-0.3c-0.1,-0.1 -0.2,-0.1 -0.2,-0.1l-13.5,0l0,-0.1z"/>
    </g>
   </g>
  </g>
 </g>
</svg>