<svg width="512" height="512" xmlns="http://www.w3.org/2000/svg">

 <g>
  <title>background</title>
  <rect fill="none" id="canvas_background" height="402" width="582" y="-1" x="-1"/>
 </g>
 <g>
  <title>Layer 1</title>
  <path fill="#ffffff" id="svg_3" d="m53.745,492.847c-1.167,0 -2.335,-0.305 -3.378,-0.912c-2.062,-1.202 -3.33,-3.409 -3.33,-5.796l0,-459.325c0,-2.387 1.269,-4.594 3.331,-5.796c2.062,-1.203 4.608,-1.217 6.685,-0.041l405.459,229.696c2.103,1.191 3.401,3.421 3.401,5.837c0,2.417 -1.3,4.646 -3.402,5.837l-405.46,229.629c-1.026,0.581 -2.166,0.871 -3.306,0.871zm6.709,-454.522l0,436.305l385.139,-218.12l-385.139,-218.185z"/>
 </g>
</svg>